<svg width="36" height="36" viewBox="0 0 92 95"
  class="group-hover:scale-110 transition-transform duration-300 text-white"
  xmlns="http://www.w3.org/2000/svg">
  <g stroke="none" stroke-width="1" fill="none" fill-rule="evenodd">
    <g transform="translate(-37, -35)" fill="currentColor">
      <g transform="translate(37.265, 35)">
        <g transform="translate(0, 0)">
          <g transform="translate(-0, 0)">
            <path
              d="M65.4492701,15.8 C76.3374701,15.8 85.1635558,24.66479 85.1635558,35.6 L85.1635558,42.2 L90.9027661,53.6647464 C91.4694141,54.7966923 91.4668177,56.1300535 90.8957658,57.2597839 L85.1635558,68.6 L85.1635558,75.2 C85.1635558,86.13554 76.3374701,95 65.4492701,95 L26.0206986,95 C15.1328272,95 6.30641291,86.13554 6.30641291,75.2 L6.30641291,68.6 L0.448507752,57.2954874 C-0.14693501,56.1464093 -0.149634367,54.7802504 0.441262896,53.6288283 L6.30641291,42.2 L6.30641291,35.6 C6.30641291,24.66479 15.1328272,15.8 26.0206986,15.8 L65.4492701,15.8 Z M30.7349843,38 C25.7644216,38 21.7349843,42.0294373 21.7349843,47 L21.7349843,63 C21.7349843,67.9705627 25.7644216,72 30.7349843,72 C35.7055471,72 39.7349843,67.9705627 39.7349843,63 L39.7349843,47 C39.7349843,42.0294373 35.7055471,38 30.7349843,38 Z M59.7349843,38 C54.7644216,38 50.7349843,42.0294373 50.7349843,47 L50.7349843,63 C50.7349843,67.9705627 54.7644216,72 59.7349843,72 C64.7055471,72 68.7349843,67.9705627 68.7349843,63 L68.7349843,47 C68.7349843,42.0294373 64.7055471,38 59.7349843,38 Z"
              fill-rule="nonzero"></path>
            <circle cx="45.7349843" cy="11" r="11"></circle>
          </g>
        </g>
      </g>
    </g>
  </g>
</svg>