<?xml version="1.0" encoding="utf-8"?>
<!-- Generator: Adobe Illustrator 17.0.2, SVG Export Plug-In . SVG Version: 6.00 Build 0)  -->
<!DOCTYPE svg PUBLIC "-//W3C//DTD SVG 1.1//EN" "http://www.w3.org/Graphics/SVG/1.1/DTD/svg11.dtd">
<svg version="1.1" id="Layer_1" xmlns="http://www.w3.org/2000/svg" xmlns:xlink="http://www.w3.org/1999/xlink" x="0px" y="0px"
	 width="20px" height="20px" viewBox="0 0 20 20" enable-background="new 0 0 20 20" xml:space="preserve">
<g>
	<path fill="#010101" d="M8.138,9.26c0.255,0,0.471-0.101,0.638-0.291c0.262-0.297,0.377-0.786,0.309-1.306
		c-0.122-0.929-0.785-1.7-1.477-1.72H7.58c-0.245,0-0.463,0.1-0.63,0.29c-0.259,0.294-0.367,0.76-0.299,1.278
		C6.772,8.439,7.449,9.24,8.127,9.26H8.138z"/>
	<path fill="#010101" d="M8.894,12.057c-0.068-0.046-0.139-0.094-0.212-0.144c-0.213-0.066-0.44-0.1-0.672-0.103H7.981
		c-1.066,0-2.002,0.647-2.002,1.383c0,0.8,0.801,1.429,1.824,1.429c1.349,0,2.033-0.465,2.033-1.382c0-0.087-0.01-0.177-0.031-0.266
		C9.714,12.616,9.387,12.394,8.894,12.057z"/>
	<path fill="#010101" d="M10,0C4.477,0,0,4.477,0,10s4.477,10,10,10c5.522,0,10-4.477,10-10S15.522,0,10,0z M9.09,15.441
		c-0.399,0.115-0.829,0.174-1.281,0.174c-0.503,0-0.987-0.058-1.438-0.172c-0.873-0.22-1.519-0.638-1.819-1.176
		c-0.13-0.233-0.196-0.481-0.196-0.737c0-0.265,0.063-0.533,0.188-0.799c0.479-1.019,1.739-1.704,3.136-1.704
		c0.014,0,0.028,0,0.041,0c-0.113-0.2-0.169-0.407-0.169-0.624c0-0.109,0.014-0.219,0.043-0.331
		c-1.464-0.034-2.561-1.107-2.561-2.521c0-0.999,0.798-1.972,1.94-2.365c0.342-0.118,0.69-0.178,1.033-0.178h3.132
		c0.107,0,0.201,0.069,0.234,0.171c0.034,0.102-0.003,0.213-0.09,0.276l-0.701,0.507c-0.042,0.03-0.093,0.047-0.145,0.047h-0.251
		c0.324,0.388,0.514,0.941,0.514,1.563c0,0.687-0.347,1.336-0.979,1.83c-0.488,0.38-0.508,0.484-0.508,0.702
		c0.006,0.12,0.347,0.508,0.721,0.773c0.874,0.619,1.199,1.224,1.199,2.237C11.135,14.166,10.332,15.081,9.09,15.441z
		 M16.166,10.068c0,0.136-0.111,0.246-0.247,0.246h-1.78v1.781c0,0.136-0.11,0.247-0.247,0.247h-0.507
		c-0.136,0-0.247-0.11-0.247-0.247v-1.781h-1.781c-0.135,0-0.246-0.11-0.246-0.246V9.56c0-0.136,0.111-0.247,0.246-0.247h1.781
		v-1.78c0-0.136,0.11-0.247,0.247-0.247h0.507c0.136,0,0.247,0.11,0.247,0.247v1.78h1.78c0.136,0,0.247,0.111,0.247,0.247
		L16.166,10.068L16.166,10.068z"/>
</g>
</svg>
