<?xml version="1.0" encoding="utf-8"?>
<!-- Generator: Adobe Illustrator 17.0.2, SVG Export Plug-In . SVG Version: 6.00 Build 0)  -->
<!DOCTYPE svg PUBLIC "-//W3C//DTD SVG 1.1//EN" "http://www.w3.org/Graphics/SVG/1.1/DTD/svg11.dtd">
<svg version="1.1" id="Layer_1" xmlns="http://www.w3.org/2000/svg" xmlns:xlink="http://www.w3.org/1999/xlink" x="0px" y="0px"
	 width="30px" height="23px" viewBox="0 0 30 23" enable-background="new 0 0 30 23" xml:space="preserve">
<path fill="#333333" d="M5.625,20.7c0,1.271,1.119,2.3,2.5,2.3H27.5c1.381,0,2.5-1.029,2.5-2.3V7.475c0-1.271-1.119-2.3-2.5-2.3H20
	c-0.687,0-1.25-0.518-1.25-1.15c0-0.633,0.563-1.15,1.25-1.15h8.438C29.3,2.875,30,2.231,30,1.438C30,0.644,29.3,0,28.438,0H18.125
	c-1.169,0-2.225,0.73-2.5,1.725l-1.244,3.45h-2.556c-0.837,0-1.581,0.305-2.119,0.793L6.544,8.889
	c-0.569,0.518-0.919,1.242-0.919,2.036v1.725h-2.5v-0.288c0-0.793-0.7-1.438-1.562-1.438S0,11.569,0,12.363v7.475
	c0,0.793,0.7,1.437,1.562,1.437c0.862,0,1.562-0.644,1.562-1.437V19.55h2.5V20.7z M13.875,14.375H25.5
	c0.762,0,1.375,0.564,1.375,1.265v3.22c0,0.701-0.613,1.265-1.375,1.265H13.875c-0.763,0-1.375-0.564-1.375-1.265v-3.22
	C12.5,14.939,13.113,14.375,13.875,14.375z M12.5,9.487c0-0.793,0.7-1.438,1.562-1.438c0.863,0,1.563,0.644,1.563,1.438
	c0,0.793-0.7,1.437-1.563,1.437C13.2,10.925,12.5,10.281,12.5,9.487z"/>
</svg>
