<?xml version="1.0" encoding="utf-8"?>
<!-- Generator: Adobe Illustrator 17.0.2, SVG Export Plug-In . SVG Version: 6.00 Build 0)  -->
<!DOCTYPE svg PUBLIC "-//W3C//DTD SVG 1.1//EN" "http://www.w3.org/Graphics/SVG/1.1/DTD/svg11.dtd">
<svg version="1.1" id="Layer_1" xmlns="http://www.w3.org/2000/svg" xmlns:xlink="http://www.w3.org/1999/xlink" x="0px" y="0px"
	 width="24px" height="24px" viewBox="0 0 24 24" enable-background="new 0 0 24 24" xml:space="preserve">
<path fill="#333333" d="M20.16,16.32c-1.155,0-2.189,0.513-2.893,1.32l-9.673-4.836C7.65,12.545,7.68,12.276,7.68,12
	s-0.03-0.545-0.086-0.804l9.673-4.836c0.704,0.808,1.738,1.32,2.893,1.32c2.121,0,3.84-1.719,3.84-3.84S22.281,0,20.16,0
	s-3.84,1.719-3.84,3.84c0,0.276,0.03,0.545,0.086,0.804L6.733,9.48C6.029,8.673,4.995,8.16,3.84,8.16C1.719,8.16,0,9.879,0,12
	s1.719,3.84,3.84,3.84c1.155,0,2.189-0.513,2.893-1.32l9.673,4.836c-0.055,0.259-0.086,0.528-0.086,0.804
	c0,2.121,1.719,3.84,3.84,3.84S24,22.281,24,20.16S22.281,16.32,20.16,16.32z"/>
</svg>
