<?xml version="1.0" encoding="utf-8"?>
<!-- Generator: Adobe Illustrator 17.0.2, SVG Export Plug-In . SVG Version: 6.00 Build 0)  -->
<!DOCTYPE svg PUBLIC "-//W3C//DTD SVG 1.1//EN" "http://www.w3.org/Graphics/SVG/1.1/DTD/svg11.dtd">
<svg version="1.1" id="Layer_1" xmlns="http://www.w3.org/2000/svg" xmlns:xlink="http://www.w3.org/1999/xlink" x="0px" y="0px"
	 width="28px" height="21px" viewBox="0 0 28 21" enable-background="new 0 0 28 21" xml:space="preserve">
<path fill="#333333" d="M15.75,12.203c0-0.783,0.653-1.419,1.458-1.419s1.458,0.636,1.458,1.419c0,0.783-0.654,1.419-1.458,1.419
	S15.75,12.986,15.75,12.203z M17.208,8.514c-2.094,0-3.792,1.652-3.792,3.689s1.698,3.689,3.792,3.689S21,14.24,21,12.203
	S19.302,8.514,17.208,8.514z M0,18.73C0,19.984,1.044,21,2.333,21h23.334C26.956,21,28,19.984,28,18.73V5.676
	c0-1.254-1.044-2.27-2.333-2.27h-2.187l-2.987-2.906C20.149,0.165,19.699,0,19.25,0h-4.078c-0.449,0-0.904,0.165-1.243,0.499
	l-2.975,2.906H8.75V2.128c0-0.55-0.455-0.993-1.021-0.993H3.937c-0.566,0-1.021,0.443-1.021,0.993v1.277H2.333
	C1.044,3.405,0,4.421,0,5.676L0,18.73L0,18.73z M7.583,8.514h-3.5c-0.642,0-1.167-0.511-1.167-1.135
	c0-0.624,0.525-1.135,1.167-1.135h3.5c0.641,0,1.167,0.511,1.167,1.135C8.75,8.003,8.225,8.514,7.583,8.514z M17.208,6.243
	c3.383,0,6.125,2.668,6.125,5.96c0,3.292-2.742,5.959-6.125,5.959c-3.383,0-6.125-2.668-6.125-5.959
	C11.083,8.911,13.825,6.243,17.208,6.243z"/>
</svg>
