<?xml version="1.0" encoding="UTF-8"?>
<!-- Generator: Adobe Illustrator 18.1.0, SVG Export Plug-In . SVG Version: 6.00 Build 0)  -->
<svg version="1.1" id="Layer_1" xmlns="http://www.w3.org/2000/svg" xmlns:xlink="http://www.w3.org/1999/xlink" x="0px" y="0px" viewBox="0 0 283.5 283.5" enable-background="new 0 0 283.5 283.5" xml:space="preserve">
<g>
	<polygon fill="#FFFFFF" points="61.9,206.4 67.8,206.4 64.8,185.7  "/>
	<g>
		<defs>
			<rect id="SVGID_1_" x="16.2" y="15.9" width="251.7" height="251.7"/>
		</defs>
		<clipPath id="SVGID_2_">
			<use xlink:href="#SVGID_1_" overflow="visible"/>
		</clipPath>
		<path clip-path="url(#SVGID_2_)" fill="#FFFFFF" d="M225,204.1v21.9h-7.9v-21.9l-10.6-30.5h8.7l5.8,18.8l5.8-18.8h8.7L225,204.1z     M203.5,191.6h-8.2v-6.1c0-1.3-0.4-2.3-1.3-3.2c-0.9-0.9-2-1.3-3.2-1.3c-1.3,0-2.3,0.4-3.2,1.3c-0.9,0.9-1.3,2-1.3,3.2v28.7    c0,1.3,0.4,2.3,1.3,3.2c0.9,0.9,1.9,1.3,3.2,1.3c1.3,0,2.3-0.4,3.2-1.3c0.9-0.9,1.3-1.9,1.3-3.2v-7.2h8.2v7.3    c0,3.5-1.2,6.4-3.7,8.9c-2.5,2.4-5.4,3.6-8.8,3.6c-3.5,0-6.4-1.2-8.9-3.7c-2.4-2.4-3.7-5.4-3.7-8.8v-28.6c0-3.5,1.2-6.4,3.7-8.9    c2.5-2.4,5.4-3.7,8.9-3.7c3.5,0,6.4,1.2,8.9,3.7c2.4,2.5,3.6,5.4,3.6,8.9V191.6z M173.3,163.1H156l-22.1-60.1v60.1h-16.1V69.2    h18.1l21.3,63.1V69.2h16.1V163.1z M171.6,226.1h-8.5l-10.9-33.5v33.5h-7.9v-52.4h8.9l10.5,35.2v-35.2h7.9V226.1z M138.9,181.6    h-14.6v14.3H135v7.9h-10.7v14.3h14.6v7.9h-22.5v-52.4h22.5V181.6z M109.6,191.6h-8.2v-6.1c0-1.3-0.4-2.3-1.3-3.2    c-0.9-0.9-2-1.3-3.2-1.3c-1.3,0-2.3,0.4-3.2,1.3c-0.9,0.9-1.3,2-1.3,3.2v28.7c0,1.3,0.4,2.3,1.3,3.2c0.9,0.9,1.9,1.3,3.2,1.3    c1.3,0,2.3-0.4,3.2-1.3c0.9-0.9,1.3-1.9,1.3-3.2v-10.3H97v-7.9h12.6v18.3c0,3.5-1.2,6.4-3.7,8.9c-2.5,2.4-5.4,3.6-8.8,3.6    c-3.5,0-6.4-1.2-8.9-3.7c-2.4-2.5-3.7-5.4-3.7-8.8v-28.6c0-3.5,1.2-6.4,3.7-8.9c2.5-2.4,5.4-3.7,8.9-3.7c3.5,0,6.4,1.2,8.9,3.7    c2.4,2.5,3.6,5.4,3.6,8.9V191.6z M70.8,226.1l-1.8-12h-8.2l-1.9,12h-8.2l8.9-52.4h10.9l8.8,52.4H70.8z M52.7,90.5    c0-6.2,2.5-11.5,7.5-15.9c5-4.4,11-6.6,17.9-6.6c7.1,0,13.1,2.2,18.1,6.6c5,4.4,7.4,9.7,7.4,15.9v51.2c0,6.2-2.5,11.5-7.5,15.9    c-5,4.4-11,6.5-18,6.5c-7.1,0-13.1-2.2-18-6.6c-4.9-4.4-7.4-9.7-7.4-15.9V90.5z M187.6,69.2h45.8v14.2h-29.7V109h21.7v14.2h-21.7    v25.6h29.7v14.2h-45.8V69.2z M230.5,15.9h-177c-20.6,0-37.4,16.7-37.4,37.4v177c0,20.6,16.7,37.4,37.4,37.4h108.7h68.2h37.4v-37.4    v-22.4V53.3C267.9,32.7,251.2,15.9,230.5,15.9"/>
		<path clip-path="url(#SVGID_2_)" fill="#FFFFFF" d="M77.7,149.7c2.6,0,4.7-0.8,6.5-2.4c1.8-1.6,2.7-3.5,2.7-5.7V90.2    c0-2.2-0.9-4.2-2.7-5.7c-1.8-1.6-4-2.4-6.5-2.4c-2.6,0-4.7,0.8-6.6,2.4c-1.8,1.6-2.7,3.5-2.7,5.7v51.4c0,2.2,0.9,4.2,2.7,5.7    C73,148.9,75.2,149.7,77.7,149.7"/>
	</g>
</g>
</svg>